<mxfile host="app.diagrams.net" modified="2024-06-15T08:36:16.302Z" agent="Mozilla/5.0 (Windows NT 10.0; Win64; x64; rv:128.0) Gecko/20100101 Firefox/128.0" version="24.2.1" etag="RRR6nHd0Qf73nLzqDon7" type="github">
  <diagram name="Page-1" id="9DvKLrJks22dSNVUHv6C">
    <mxGraphModel>
      <root>
        <mxCell id="0" />
        <mxCell id="1" parent="0" />
      </root>
    </mxGraphModel>
  </diagram>
</mxfile>
